Coordinates
version=1
nRows=16
nColumns=18
inDegrees=yes

Units are S.I. units (second, meters, Newtons, ...)
If the header above contains a line with 'inDegrees', this indicates whether rotational values are in degrees (yes) or radians (no).

endheader
time	ground_thorax_rot_x	ground_thorax_rot_y	ground_thorax_rot_z	ground_thorax_tx	ground_thorax_ty	ground_thorax_tz	clav_prot	clav_elev	scapula_abduction	scapula_elevation	scapula_upward_rot	scapula_winging	plane_elv	shoulder_elv	axial_rot	elbow_flexion	pro_sup
      4.24000000	      0.11472308	     -8.91310787	    -11.66682427	      0.00000000	      0.00000000	      0.00000000	    -40.97193745	      9.84416793	      2.27759783	     -1.40012622	     78.68526290	    -10.77476978	     40.04006181	     84.65695090	    -11.96651136	      0.00000000	     34.32000000
      4.25000000	      0.11964680	     -9.03131837	    -11.64480823	      0.00000000	      0.00000000	      0.00000000	    -40.86247657	      9.77158950	      2.32977527	     -1.45859950	     78.49095328	    -10.72424289	     40.37374626	     84.37754820	    -12.22958544	      0.00000000	     34.32000000
      4.26000000	      0.09768420	     -9.27872623	    -11.67519230	      0.00000000	      0.00000000	      0.00000000	    -40.74559270	      9.74584462	      2.46054569	     -1.47526956	     78.39353299	    -10.66676470	     40.60078230	     83.96073918	    -12.31964258	      0.00000000	     34.32000000
      4.27000000	     -0.03746202	     -9.20937644	    -11.77886643	      0.00000000	      0.00000000	      0.00000000	    -40.86871567	      9.65128708	      2.07018311	     -1.57360503	     78.14245239	    -10.74881108	     41.09128471	     83.61259456	    -11.87598655	      0.00000000	     34.32000000
      4.28000000	     -0.09520953	     -9.22424963	    -11.89775736	      0.00000000	      0.00000000	      0.00000000	    -40.80619161	      9.56078574	      1.99655904	     -1.65327778	     77.88716638	    -10.72778242	     41.41794197	     83.60642780	    -11.61801745	      0.00000000	     34.32000000
      4.29000000	      0.17520092	     -9.46272678	    -11.75225065	      0.00000000	      0.00000000	      0.00000000	    -40.53594224	      9.89058291	      2.38782243	     -1.40521618	     77.89856994	    -10.65137679	     41.49683748	     83.67692103	    -12.74389525	      0.00000000	     34.32000000
      4.30000000	      0.13167389	     -9.53297405	    -11.67100722	      0.00000000	      0.00000000	      0.00000000	    -40.39000909	      9.83516423	      2.60137749	     -1.43643025	     77.83174989	    -10.56790168	     41.62036638	     83.28451872	    -12.76902757	      0.00000000	     34.32000000
      4.31000000	      0.00698489	     -9.43077021	    -11.80613992	      0.00000000	      0.00000000	      0.00000000	    -40.26048468	      9.54476081	      2.62726672	     -1.65331788	     77.49269022	    -10.47703547	     41.77817961	     83.32146275	    -13.10661205	      0.00000000	     34.32000000
      4.32000000	      0.02442936	     -9.67126686	    -11.75890423	      0.00000000	      0.00000000	      0.00000000	    -39.91522415	      9.48504521	      3.22098693	     -1.66675638	     77.46675416	    -10.28123137	     41.77981896	     82.93587692	    -12.86120550	      0.00000000	     34.32000000
      4.33000000	     -0.05328205	     -9.81547833	    -11.83547039	      0.00000000	      0.00000000	      0.00000000	    -39.62887646	      9.28074882	      3.62456480	     -1.79747157	     77.28587492	    -10.10664843	     41.84554288	     82.71000991	    -12.59404787	      0.00000000	     34.32000000
      4.34000000	     -0.19389122	     -9.83524139	    -11.97685808	      0.00000000	      0.00000000	      0.00000000	    -39.52965416	      9.08492243	      3.61523944	     -1.94745199	     77.00023658	    -10.04583174	     42.13418665	     82.55517908	    -12.26344014	      0.00000000	     34.32000000
      4.35000000	      0.02325400	    -10.11642335	    -11.88889856	      0.00000000	      0.00000000	      0.00000000	    -39.35439679	      9.44072139	      3.77448043	     -1.69629952	     76.93134663	    -10.04659330	     42.34208712	     82.56522343	    -14.47429181	      0.00000000	     34.32000000
      4.36000000	     -0.01856061	    -10.03251052	    -11.86421759	      0.00000000	      0.00000000	      0.00000000	    -39.43799706	      9.57647065	      3.39081685	     -1.63252332	     76.68147130	    -10.15263101	     42.89943548	     82.48563347	    -14.37636200	      0.00000000	     34.32000000
      4.37000000	     -0.03645513	     -9.93105690	    -11.89009328	      0.00000000	      0.00000000	      0.00000000	    -39.52737460	      9.62101777	      3.10744575	     -1.62194913	     76.53857841	    -10.22718181	     43.34602751	     82.32269049	    -14.22818989	      0.00000000	     34.32000000
      4.38000000	     -0.26557973	     -9.71105586	    -12.07356064	      0.00000000	      0.00000000	      0.00000000	    -39.56685631	      9.30188752	      2.86864612	     -1.86820175	     76.22763317	    -10.21291783	     43.74624812	     82.15204867	    -13.70362696	      0.00000000	     34.32000000
      4.39000000	     -0.20261723	     -9.85174903	    -12.01294067	      0.00000000	      0.00000000	      0.00000000	    -39.36042069	      9.39883405	      3.14404206	     -1.79068139	     76.15608243	    -10.13711424	     43.99233526	     81.78972034	    -13.38105406	      0.00000000	     34.32000000
